<svg width="25" height="20" viewBox="0 0 25 20" fill="none" xmlns="http://www.w3.org/2000/svg">
<rect width="25" height="20" rx="10" fill="#C9CFD6"/>
<path d="M10.0059 9.43555L10.3672 5.89062H14.0098V6.72559H11.1338L10.9189 8.66406C11.2673 8.45898 11.6628 8.35645 12.1055 8.35645C12.7533 8.35645 13.2676 8.57129 13.6484 9.00098C14.0293 9.42741 14.2197 10.0052 14.2197 10.7344C14.2197 11.4668 14.0212 12.0446 13.624 12.4678C13.2301 12.8877 12.6784 13.0977 11.9688 13.0977C11.3405 13.0977 10.8278 12.9235 10.4307 12.5752C10.0335 12.2269 9.80729 11.7451 9.75195 11.1299H10.6064C10.6618 11.5368 10.8066 11.8444 11.041 12.0527C11.2754 12.2578 11.5846 12.3604 11.9688 12.3604C12.3887 12.3604 12.7174 12.2171 12.9551 11.9307C13.196 11.6442 13.3164 11.2487 13.3164 10.7441C13.3164 10.2689 13.1862 9.88802 12.9258 9.60156C12.6686 9.31185 12.3252 9.16699 11.8955 9.16699C11.5016 9.16699 11.1924 9.25326 10.9678 9.42578L10.7285 9.62109L10.0059 9.43555Z" fill="white"/>
</svg>
