<svg width="132" height="52" viewBox="0 0 132 52" fill="none" xmlns="http://www.w3.org/2000/svg">
<path fill-rule="evenodd" clip-rule="evenodd" d="M107 1.00001L95.6863 12.3137H5C2.79086 12.3137 1 14.1046 1 16.3137V47.3137C1 49.5229 2.79086 51.3137 5 51.3137H127C129.209 51.3137 131 49.5229 131 47.3137V16.3137C131 14.1046 129.209 12.3137 127 12.3137H118.314L107 1.00001Z" fill="white"/>
<path d="M95.6863 12.3137V12.8137H95.8934L96.0398 12.6673L95.6863 12.3137ZM107 1.00001L107.354 0.646459L107 0.292906L106.646 0.646459L107 1.00001ZM118.314 12.3137L117.96 12.6673L118.107 12.8137H118.314V12.3137ZM96.0398 12.6673L107.354 1.35357L106.646 0.646459L95.3327 11.9602L96.0398 12.6673ZM5 12.8137H95.6863V11.8137H5V12.8137ZM1.5 16.3137C1.5 14.3807 3.067 12.8137 5 12.8137V11.8137C2.51472 11.8137 0.5 13.8284 0.5 16.3137H1.5ZM1.5 47.3137V16.3137H0.5V47.3137H1.5ZM5 50.8137C3.067 50.8137 1.5 49.2467 1.5 47.3137H0.5C0.5 49.799 2.51472 51.8137 5 51.8137V50.8137ZM127 50.8137H5V51.8137H127V50.8137ZM130.5 47.3137C130.5 49.2467 128.933 50.8137 127 50.8137V51.8137C129.485 51.8137 131.5 49.799 131.5 47.3137H130.5ZM130.5 16.3137V47.3137H131.5V16.3137H130.5ZM127 12.8137C128.933 12.8137 130.5 14.3807 130.5 16.3137H131.5C131.5 13.8284 129.485 11.8137 127 11.8137V12.8137ZM118.314 12.8137H127V11.8137H118.314V12.8137ZM106.646 1.35357L117.96 12.6673L118.667 11.9602L107.354 0.646459L106.646 1.35357Z" fill="#EAEAEA"/>
</svg>
